<svg width="97.454mm" height="28.45mm" version="1.1" viewBox="0 0 97.454 28.45"
	xmlns:dc="http://purl.org/dc/elements/1.1/"
	xmlns:cc="http://creativecommons.org/ns#"
	xmlns:rdf="http://www.w3.org/1999/02/22-rdf-syntax-ns#"
	xmlns:svg="http://www.w3.org/2000/svg"
	xmlns="http://www.w3.org/2000/svg"
	xmlns:xlink="http://www.w3.org/1999/xlink">
	<metadata>
		<rdf:RDF>
			<cc:Work rdf:about="">
				<dc:creator>
					<cc:Agent>
						<dc:title>Tim Krief</dc:title>
					</cc:Agent>
				</dc:creator>
			</cc:Work>
		</rdf:RDF>
	</metadata>
	<defs>
		<filter id="b" x="-2.3896e-22" y="-3.0109e-22" width="1" height="1" color-interpolation-filters="sRGB">
			<feGaussianBlur stdDeviation="6.4826266e-21"/>
		</filter>
		<linearGradient id="a" x1="343.35" x2="341.45" y1="287.84" y2="292.01" gradientTransform="matrix(3.2709 0 0 2.8141 -1125.5 -788.22)" gradientUnits="userSpaceOnUse">
			<stop stop-color="#232d45" offset="0"/>
			<stop stop-color="#232d45" stop-opacity="0" offset="1"/>
		</linearGradient>
		<filter id="c" x="-.050341" y="-.050342" width="1.1007" height="1.1007" color-interpolation-filters="sRGB">
			<feGaussianBlur stdDeviation="0.51358675"/>
		</filter>
	</defs>
	<g transform="translate(5.3977 -8.548)" fill="#232d45" filter="url(#c)" opacity=".17294">
		<path d="m9.0776 10.781c-5.3646 0-8.3471-6.43e-4 -10.295 1.9472-1.9478 1.9478-1.9477 4.9304-1.9477 10.295 0 2.9446 0.0025 5.168 0.32453 6.8998 0.06023 0.32386 0.1327 0.62965 0.21756 0.92036 0.01825 0.06271 0.0363 0.12582 0.05581 0.18707 0.02411 0.07544 0.04935 0.14997 0.07545 0.22324 0.03942 0.11104 0.08085 0.21984 0.12506 0.32608 0.0015 0.0037 0.0026 0.0077 0.0041 0.01137 0.0215 0.05124 0.04503 0.10075 0.0677 0.1509 0.04262 0.09456 0.08743 0.18722 0.13436 0.27802 3e-3 0.0057 0.0053 0.01188 0.0083 0.01757 0.0043 0.0083 0.0081 0.01709 0.0124 0.02532 0.01203 0.02274 0.02386 0.04571 0.03617 0.06821 0.06354 0.11642 0.13271 0.2286 0.20412 0.339 0.0081 0.01259 0.015 0.02624 0.02325 0.03876 0.01685 0.02549 0.0349 0.05027 0.05219 0.07545 0.02075 0.03029 0.04164 0.06059 0.06304 0.09043 0.02977 0.04149 0.06042 0.08235 0.09147 0.12299 0.0271 0.03548 0.05407 0.07109 0.08216 0.10594 0.0052 0.0065 0.01022 0.01315 0.0155 0.01964 9.39e-4 0.0012 0.0016 0.0025 0.0026 0.0036 0.01384 0.01694 0.02881 0.03333 0.04289 0.05013 0.0023 0.0027 5e-3 0.0051 0.0072 0.0078 0.0064 0.0076 0.01271 0.01521 0.01912 0.02274 0.03133 0.03682 0.06204 0.07396 0.09457 0.11007 0.03929 0.04362 0.08088 0.08606 0.12196 0.12867 0.01416 0.0147 0.02748 0.02986 0.04186 0.04444 0.0086 0.0087 0.01564 0.01823 0.02429 0.02687 0.11961 0.11961 0.2437 0.23112 0.37155 0.33641 0.05443 0.04493 0.11248 0.08415 0.16846 0.12661 0.07118 0.05384 0.14117 0.10971 0.21497 0.15968 0.09126 0.06198 0.18726 0.11784 0.28267 0.17415 0.04399 0.02587 0.08635 0.05384 0.13126 0.07855 0.10443 0.05769 0.21345 0.1101 0.32298 0.16175 0.03923 0.01842 0.07689 0.03865 0.11679 0.05633 0.12389 0.05511 0.25285 0.10526 0.38344 0.15348 0.02694 0.0099 0.05287 0.02087 0.0801 0.03049 0.14398 0.0511 0.29354 0.09749 0.44597 0.14108 0.01499 0.0043 0.02937 0.0092 0.04444 0.01344 0.15747 0.04405 0.32044 0.08358 0.48731 0.12041 0.01441 0.0032 0.02841 0.0067 0.04289 0.0098 0.10402 0.02247 0.20951 0.04417 0.31729 0.06408 0.04431 0.0082 0.09043 0.01548 0.13539 0.02325 0.02766 0.0048 0.05529 0.0098 0.0832 0.01447 0.0039 6.45e-4 0.0075 0.0014 0.01137 0.0021 0.16494 0.02719 0.33469 0.05173 0.5085 0.0739 0.04796 0.0061 0.09604 0.01233 0.14469 0.01809 0.22408 0.02651 0.45532 0.04968 0.69453 0.06925 0.0332 0.0027 0.06521 0.0062 0.0987 0.0088 0.54192 0.04193 1.1282 0.06746 1.7529 0.08372 0.42091 0.01098 0.87161 0.01732 1.3333 0.02119 0.6666 0.0055 1.3655 0.0072 2.1234 0.0072 0.66397 0 1.2876-3.24e-4 1.881-0.0041 0.06915-4.29e-4 0.12969-2e-3 0.19792-0.0026 0.50792-0.0041 1.0004-0.01047 1.4593-0.02325 0.0039-1.08e-4 0.0075-4.08e-4 0.01137-5.17e-4 0.01481-4.1e-4 0.03226-9.5e-5 0.04703-5.16e-4 0.0097-2.79e-4 0.01871-7.51e-4 0.02842-1e-3 0.07919-0.0023 0.15322-0.0061 0.23099-0.0088 0.0139-4.82e-4 0.028-0.0011 0.04186-0.0015 0.11873-0.0042 0.23902-0.0078 0.3545-0.01292 0.03913-0.0017 0.08113-0.0028 0.11989-0.0047h5.17e-4c0.10692-0.0051 0.20694-0.01211 0.31109-0.01809 0.08744-0.0051 0.17648-0.0098 0.262-0.0155 0.16223-0.01083 0.31942-0.0242 0.47491-0.03772 0.0608-0.0053 0.12262-0.01026 0.18242-0.01602 0.15849-0.01519 0.3125-0.03262 0.46406-0.05116 0.05561-0.0068 0.1117-0.01387 0.1664-0.02119 0.14233-0.01896 0.28125-0.04011 0.41754-0.06253h0.0021c0.0059-9.64e-4 0.01121-0.0021 0.01705-0.0031 0.05225-0.0087 0.10468-0.01763 0.15606-0.02687 0.06751-0.01212 0.13861-0.02206 0.20464-0.03514 0.05839-0.01157 0.11224-0.0264 0.1695-0.03876 0.01355-0.0029 0.02682-0.0058 0.04031-0.0088 0.04686-0.01034 0.09342-0.02115 0.13953-0.03204 0.11946-0.02816 0.2374-0.05789 0.35192-0.08992 0.01365-0.0038 0.02673-8e-3 0.04031-0.01189 0.04351-0.01243 0.08638-0.02573 0.12919-0.03876 0.10959-0.0333 0.21838-0.06755 0.3235-0.1049h5.16e-4c0.0156-0.0055 0.03048-0.01195 0.04599-0.01757 3e-3 -0.0011 0.0058-0.0025 0.0088-0.0036 0.0014-4.97e-4 0.0028-0.0011 0.0041-0.0016h5.17e-4c0.03241-0.01188 0.06412-0.0244 0.09612-0.03669 0.10447-0.04009 0.20892-0.08043 0.30902-0.12506 0.02199-0.0098 0.04281-0.02102 0.0646-0.03101 0.0278-0.01281 0.0547-0.02661 0.08217-0.03979 0.08133-0.039 0.16491-0.07546 0.2434-0.11782 0.01656-0.0089 0.03162-0.01985 0.04806-0.02894 0.02166-0.01194 0.04211-0.02551 0.06356-0.03772 0.02281-0.01303 0.04461-0.02748 0.06718-0.04082 0.09521-0.05627 0.19108-0.11172 0.28215-0.17363 0.02077-0.01408 0.0399-0.03057 0.06046-0.04496 0.01841-0.01291 0.03601-0.02715 0.05426-0.04031 0.01017-0.0073 0.01985-0.01534 0.02997-0.02274 0.08204-0.06009 0.16568-0.1182 0.24443-0.18345 0.1249-0.1033 0.24574-0.2132 0.36277-0.33021l5.17e-4 -5.17e-4c0.07641-0.07641 0.14912-0.15489 0.21962-0.23461 0.02175-0.02457 0.04288-0.04952 0.06408-0.07441 0.01479-0.01739 0.02991-0.03465 0.04444-0.05219 0.0065-0.0079 0.01369-0.01536 0.02015-0.02325 0.02268-0.02772 0.04359-0.05663 0.06563-0.08475 0.02721-0.03468 0.05488-0.06909 0.08113-0.10439 0.03546-0.04775 0.0691-0.09681 0.10284-0.14573 0.01-0.01444 0.02066-0.02835 0.03049-0.04289 0.0057-0.0085 0.01187-0.01678 0.01757-0.02532 0.03169-0.04748 0.0613-0.09662 0.09147-0.14521 0.02636-0.04256 0.05333-0.08473 0.07855-0.12816 0.0233-0.04002 0.04587-0.08067 0.06821-0.12144 0.01319-0.02405 0.0259-0.04855 0.03876-0.07286 0.0082-0.01555 0.01622-0.03137 0.02429-0.04703 0.0539-0.10433 0.10472-0.21109 0.15296-0.32039 0.01169-0.02648 0.02429-0.05229 0.03566-0.07906 0.06039-0.1423 0.11622-0.28925 0.16795-0.44028 0.01074-0.03135 0.02062-0.06386 0.03101-0.0956 0.0067-0.02038 0.01312-0.04096 0.01964-0.06149 0.03512-0.11061 0.06815-0.2236 0.09922-0.339 0.0094-0.03476 0.01941-0.06918 0.02842-0.10439 0.04216-0.16479 0.08141-0.33369 0.11627-0.5085 0.0038-0.01889 0.0067-0.03887 0.01034-0.05788 0.03064-0.15803 0.05837-0.32078 0.08371-0.48731 0.0072-0.04701 0.01443-0.0944 0.02119-0.14211 0.01291-0.09118 0.0231-0.18736 0.03462-0.28112 0.02416-0.19663 0.04549-0.39936 0.06408-0.60771 0.0078-0.0879 0.01682-0.17505 0.02377-0.2651 0.02121-0.27526 0.03937-0.55865 0.05323-0.85473 6.97e-4 -0.01486 0.0019-0.02798 0.0026-0.04289h-1e-3c0.0564-1.2368 0.05684-2.6572 0.05684-4.3041 0-5.3646-2e-5 -8.3471-1.9482-10.295-1.9478-1.9478-4.9298-1.9472-10.294-1.9472z" fill="#232d45" stroke-width=".26458" style="paint-order:normal"/>
	</g>
	<path transform="matrix(.26458 0 0 .26458 -15.383 -43.998)" d="m112.83 171.64c-20.276 0-31.548-6e-4 -38.91 7.3613-7.3619 7.362-7.3613 18.634-7.3613 38.91s-6e-4 31.546 7.3613 38.908c3.5086 3.5085 7.9219 5.3356 13.758 6.2969h50.303c5.8359-0.9613 10.249-2.7884 13.758-6.2969 7.3619-7.362 7.3633-18.632 7.3633-38.908s0-31.548-7.3633-38.91c-7.362-7.3619-18.632-7.3613-38.908-7.3613z" fill="#e36872" filter="url(#b)" stop-color="#000000" style="paint-order:normal"/>
	<path d="m16.504 14.475-0.11886 0.15298-0.15398 0.1266-0.14108 0.29559-0.20878 0.30541-0.19791 0.3142-0.22222 0.29868-0.27853 0.24495-0.35915 0.093-0.34779 0.12351-0.32038 0.18812-0.31213 0.20257-0.30232 0.21963-0.32916 0.17568-0.22945 0.29766-0.27699 0.29921-0.56224 0.15037-0.54261 0.25117-0.57256-0.029-0.57102-0.077-0.5633 0.0842-0.5674-0.0259-0.57153 0.0713-0.55811-0.17777-0.57155 0.0661-0.56637 0.11938-0.509 0.37156-0.57621 0.11885-0.47541 0.416-0.51006 0.33589-0.46043 0.1297-0.43823 0.17105-0.36843 0.22895-0.28165 0.01561-0.25114 0.10488-0.27699-0.01349-0.26149-0.11575-0.19844-0.0832c0.23572 1.7384 0.72038 3.021 1.7245 4.0251 1.9479 1.9479 4.9303 1.9482 10.295 1.9482 5.3647 0 8.3466 0 10.294-1.9482 1.0214-1.0214 1.5047-2.3319 1.7358-4.1165h-0.31263l-0.39637 0.0357-0.38809-0.12557-0.33743-0.27959-0.35864-0.21444-0.35502-0.22738-0.33279-0.27493-0.33436-0.27078-0.38549-0.1421-0.32195-0.31057-0.36174-0.2181-0.39534-0.0687-0.39428-0.0383-0.38859-0.094-0.14058-0.0506-0.13951-0.0584-0.11472-0.0997-0.1292-0.078-0.0889-0.12507-0.12094-0.093-0.10179-0.1111-0.12041-0.091-0.092-0.12144-0.0455-0.14623-0.0961-0.11576-0.0786-0.12972-0.1111-0.10232-0.0729-0.13486-0.0982-0.11525-0.062-0.13745-0.21394-0.0517-0.21807-0.0284-0.22272-0.0196-0.20154-0.0971-0.20672-0.0811-0.20825-0.076-0.21754-0.0574-0.22325 0.02061-0.1881-0.11576-0.18346-0.12144-0.17621-0.13951-0.20566-0.0842-0.17778-0.13127-0.18655-0.11886-0.19791-0.10075-0.1633-0.15401z" fill="#fff"/>
	<path d="m26.379 17.93-0.58809 0.062-0.57927 0.0858-0.57156 0.16074-0.57774 0.13795-0.41754 0.11991-0.35089 0.30126-0.61754 0.25683-0.69194 0.18036-0.69659 0.11782-0.68988 0.17725-0.64545 0.36433-0.61804 0.43458-0.64389 0.36486-0.64336 0.36946-0.6904 0.20413-0.69816-0.0496-0.694 0.10284-0.68524 0.18346-0.6935-0.02429-0.69091-0.0434-0.69712 0.16587-0.69144-0.12298-0.45733 0.47956-0.43924 0.50022-0.54776 0.28887-0.54571 0.29922-0.39431 0.55396-0.51519 0.38034-0.51729 0.35708-0.48524 0.41756-0.58394 0.10438-0.57671 0.1633-0.50541 0.4005-0.0185 0.01c1.8158 0.46416 4.225 0.46509 7.551 0.46509 5.3647 0 8.3466 0 10.294-1.9482 1.3498-1.3498 1.7641-3.198 1.8914-5.9898z" fill="#d9e6f4"/>
	<path d="m2.3676 19.186c0.19566 2.1228 0.6663 3.6243 1.8076 4.7656 1.9479 1.9479 4.9303 1.9482 10.295 1.9482 5.0945 0 8.0381-4e-3 9.9901-1.6717l-0.16846-0.21135-0.29662-0.19481-0.29146-0.19328-0.27493-0.22326-0.28782-0.19687-0.31938-0.1292-0.31212-0.15348-0.38653-3e-3 -0.28578-0.19947-0.29919-0.17415-0.33023-0.078-0.31832-0.13179-0.47336 0.01849-0.47438 0.0114-0.47336-0.0398-0.47078-0.062-0.45267-0.1783-0.46871-0.12867-0.47593 0.0796-0.48371-0.0114-0.43564-0.22013-0.41701-0.26199-0.48059-0.0796-0.43564-0.2367-0.48058 8e-3 -0.4775-0.0424-0.46043-0.17002-0.48524 3e-3 -0.44495-0.0915-0.43873-0.11523h-0.45371l-0.44392 0.10282-0.43098-0.13022-0.42579-0.15349-0.44289-0.0615-0.4382-0.10284-0.42995-0.14005h-0.44855l-0.43304-0.11628-0.44495-0.0424-0.41392-0.19431-0.45063-0.0274-0.44183-0.0605-0.43511-0.0997-0.43667-0.0114-0.42529 0.10697-0.43254-0.0341-0.43304 0.0383-0.4222-0.14779-0.37052-0.26718-0.43614-0.0723-0.43979-0.01609-0.4041-0.15605z" fill="#bed0e4"/>
	<path d="m9.8017 22.01-1.1844 0.35036-0.22067 0.73589-2.3487 1.3167-0.79941 0.35761c0.27349 0.15846 0.56552 0.2949 0.8759 0.41185l2.927-1.7797 0.39947-0.11422 0.81235-0.61392zm-4.4338 0.13592-0.42476 0.58187 0.22582 0.3302-1.049 0.83304c0.0191 0.01979 0.0358 0.0409 0.0553 0.0605 0.2181 0.2181 0.45119 0.40886 0.69712 0.58084l0.4041-0.43977 1.3147-0.87074 0.57153-0.2191-0.83611-0.52401z" fill="url(#a)" opacity=".13381" stop-color="#000000" style="mix-blend-mode:normal"/>
	<path d="m7.4792 8.2598c-0.18723 0.0104-0.37469 0.0404-0.56146 0.0925v0.0011c-1.494 0.41842-2.3357 2.0773-1.8806 3.7057 0.20448 0.73073 0.63633 1.3294 1.1845 1.7315l-1.8231 1.2544 1.1845 2.9726 0.48839-0.4524-0.08198 0.54594-0.67047 3.4857-0.41436 0.15938 0.038 0.78762 1.5228 0.85445 0.77528-0.44933-0.24985-0.89249 0.27455-1.6411 0.45342-1.1434 0.57477 1.4508 0.27455 1.6411-0.24985 0.89247 0.77531 0.44935 1.5228-0.85344 0.038-0.78863-0.41437-0.15838-0.59431-3.1742 0.18505 0.19122 1.8971-2.8616-2.6025-2.0441c0.60938-0.33854 0.98127-0.66889 1.2053-1.0937l-1.1996-0.4441-0.26798-0.8938 1.6455 0.66366c0.0543-0.42653 0.0528-1.2845-0.0598-1.7044-0.39868-1.4246-1.6597-2.3545-2.9695-2.2847zm1.896 1.1773 0.63705 1.434-0.70705 0.29653-0.59178-1.4707zm-2.9213 5.4944-0.27544 1.7278-0.74408-1.1715zm2.5602 0.54334 1.4688 0.82493-1.1028 0.92612z" fill="#232d45" stop-color="#000000"/>
	<rect transform="matrix(.97132 -.23777 .124 .99228 0 0)" x="14.311" y="9.8922" width=".7889" height="8.5238" ry=".39445" fill="#cbdbeb" stop-color="#000000"/>
	<path d="m16.46 6.2296 5.7064 1.8775-5.266 2.8908z" fill="#fff" stop-color="#000000"/>
	<path d="m24.545 5.8772-2.2361 1.3731c0.0504 0.0343 0.0985 0.0693 0.14476 0.10506l2.4315-0.40767zm-12.029 0.53476-0.35231 0.8339 2.3101 0.32738c0.0506-0.0393 0.10306-0.0778 0.15762-0.11564zm13.44 1.5761-2.7685 0.55855c7.93e-4 0.01159 3e-3 0.02051 3e-3 0.0317 7.94e-4 0.0431 2.65e-4 0.0864-3e-3 0.12975l2.7991 0.41296zm-14.917 0.34765 0.0187 1.134 2.557-0.51006c3e-3 -0.0779 0.01339-0.1559 0.0298-0.2337zm11.504 1.5478c-0.0451 0.0417-0.0926 0.0832-0.14236 0.12365l2.1098 1.0377 0.34102-0.83744zm-8.3345 0.28244-2.0695 0.3424 0.32899 1.0739 1.9947-1.2178c-0.0915-0.0638-0.17634-0.13006-0.25422-0.19846z" fill="#cbdbeb" opacity=".36544" stop-color="#000000"/>
	<path d="m40.308 15.649h0.32924c-0.5619 1.2555-1.0361 2.6687-1.4225 4.2403 0.33363-0.59702 0.67576-1.0665 1.0269-1.409 0.35997-0.35119 0.68921-0.52665 0.9877-0.52665 0.51802 0 1.0275 0.58333 1.5278 1.7511-0.42142 0.56192-0.73778 1.3302-0.94849 2.3047-0.08774 0.37754-0.13591 0.75553-0.1447 1.1331h-0.07919c-0.69359 0-1.1455-0.31164-1.3562-0.935-0.079-0.22826-0.11834-0.46131-0.11834-0.69836 0-0.518 0.12269-1.1501 0.36847-1.8963-0.58824 0.50922-1.1499 1.3215-1.6854 2.4366-0.03513 0.20193-0.07037 0.52236-0.10553 0.9614-0.50044-0.10539-0.87371-0.25033-1.1196-0.4347-0.22828-0.16682-0.36444-0.30299-0.40834-0.40834 0.01756-0.80774 0.09681-1.7162 0.2373-2.7258 0.14926-1.0096 0.2895-1.8172 0.4212-2.423 0.13169-0.61459 0.20622-0.92686 0.22377-0.93564 0.42144-0.13171 0.84754-0.23265 1.2778-0.30288 0.43899-0.07902 0.76823-0.12245 0.9877-0.13119zm12.248 0.07853c-0.34241 0.73751-0.63643 1.5145-0.88227 2.3311-0.24583 0.80774-0.4213 1.5238-0.52666 2.1472-0.21948 1.3081-0.32924 2.2871-0.32924 2.9368v0.4212c-0.96577-0.39509-1.6554-0.82119-2.0681-1.2778 0.07026-0.77263 0.19355-1.6283 0.36912-2.5677 0.18436-0.93944 0.34629-1.686 0.48679-2.2391l0.21092-0.82954c0.39509-0.23706 0.82119-0.43014 1.2778-0.57939 0.45654-0.15803 0.8122-0.2549 1.0668-0.29002zm3.0423 0c-0.34242 0.73751-0.63644 1.5145-0.88228 2.3311-0.24583 0.80774-0.42194 1.5238-0.52729 2.1472-0.21951 1.3081-0.32925 2.2871-0.32925 2.9368v0.4212c-0.96577-0.39509-1.6548-0.82119-2.0674-1.2778 0.07026-0.77263 0.19354-1.6283 0.3691-2.5677 0.18438-0.93944 0.34633-1.686 0.48681-2.2391l0.21092-0.82954c0.39509-0.23706 0.82119-0.43014 1.2778-0.57939 0.45657-0.15803 0.81157-0.2549 1.0662-0.29002zm-18.332 0.34273c-0.35119 1.1589-0.63233 2.3926-0.84304 3.7007-0.77263-0.34242-1.4399-0.81254-2.0018-1.4095-0.67604 0.99217-1.0839 2.0808-1.2244 3.2661l3.5027-0.935c0 0.17559-0.08735 0.41743-0.26302 0.72473-0.16681 0.2985-0.37342 0.56204-0.61925 0.79031-0.24584 0.2195-0.63672 0.45188-1.1723 0.69772-0.52679 0.23706-1.1453 0.41724-1.8564 0.54017-1.0623-0.42142-1.7825-0.95732-2.16-1.607 0-0.96577 0.28523-2.0193 0.85591-3.1606 0.57069-1.1414 1.2116-1.8967 1.9227-2.2655 0.29851 0 0.63248 0.01767 1.0013 0.05276 0.97451-0.05263 1.8085-0.15771 2.5022-0.31574zm33.096 1.3826c0.42143 0.05263 0.78116 0.16243 1.0797 0.32925 0.29851 0.16681 0.49159 0.32059 0.57937 0.46107l0.13183 0.21093c-0.04395 0.33363-0.1272 0.65406-0.25014 0.9614-0.11411 0.30729-0.22389 0.53087-0.32926 0.67134l-0.14468 0.21092c-0.01756 1.4311-0.39086 2.5591-1.1196 3.3844-0.72872 0.82529-1.7516 1.2379-3.0686 1.2379-0.14926-0.07019-0.30713-0.2193-0.47395-0.44757-0.32484-0.43021-0.57548-0.89562-0.75106-1.3961 0.26339 0.14926 0.72 0.22378 1.3697 0.22378 0.64969 0 1.172-0.21068 1.5671-0.63212 0.39509-0.43021 0.64982-0.94781 0.76395-1.5536-0.21949 0.34242-0.4871 0.64932-0.80317 0.92149-0.30729 0.2634-0.56201 0.44358-0.76395 0.54018l-0.31574 0.14468c-0.50044-0.08786-0.91775-0.31138-1.2514-0.67134-0.35121-0.36876-0.52666-0.68512-0.52666-0.94851 0-0.27217 0.05687-0.56619 0.17105-0.88227 0.11411-0.31607 0.2808-0.63652 0.50029-0.9614 0.22827-0.33363 0.53111-0.61477 0.90864-0.84304 0.37754-0.23706 0.78603-0.3556 1.225-0.3556 0.39509 0 0.72027 0.11858 0.97489 0.3556 0.0921 0.08846 0.1717 0.18061 0.24372 0.27522zm-23.205 0.1717c0.3073 0.11411 0.57962 0.272 0.81668 0.47393 0.23706 0.19316 0.39964 0.35981 0.48744 0.50029l0.13184 0.21092c-0.13171 0.50044-0.3512 0.99226-0.65849 1.4751l-0.14533 0.23665v0.19742c0 0.7375 0.0881 1.3831 0.26364 1.9362l-1.1459 0.52666c-0.55313-0.13171-0.88645-0.49144-1.0006-1.0797-0.22828 0.2634-0.483 0.48698-0.76395 0.67135-0.27217 0.18436-0.50048 0.27652-0.68484 0.27652-0.41266 0-0.79001-0.18427-1.1324-0.55303-0.33362-0.36874-0.50093-0.71969-0.50093-1.0533 0-0.33362 0.07046-0.6852 0.21092-1.054 0.14048-0.37754 0.33829-0.73727 0.5929-1.0797 0.25461-0.35119 0.59674-0.63641 1.0269-0.8559 0.43021-0.22828 0.85159-0.34275 1.2643-0.34275 0.41266 0 0.7114 0.06634 0.89577 0.19806zm15.817 0.10479c-0.17561 0.47411-0.34637 1.1414-0.51317 2.0018 0.31608-0.55312 0.64532-0.98742 0.9877-1.3035 0.34242-0.31607 0.65403-0.47393 0.93499-0.47393 0.518 0 1.0268 0.58332 1.5273 1.7511-0.06152 0.12294-0.14008 0.29904-0.23665 0.52731-0.09656 0.21949-0.22865 0.65376-0.39547 1.3035-0.16681 0.64092-0.25894 1.2601-0.27652 1.8571-0.81653-0.25462-1.4133-0.56217-1.7909-0.92214 0.29851-1.0887 0.44821-1.9226 0.44821-2.5022v-0.11834l-0.02697-0.23727c-0.50045 0.43021-0.99635 1.1063-1.4881 2.0282-0.04395 0.31607-0.08801 0.75506-0.13182 1.317-0.34243-0.07902-0.65404-0.18468-0.93499-0.31637-0.28096-0.1317-0.47812-0.24145-0.59225-0.32925l-0.17106-0.14468c0.0527-1.2555 0.15362-2.3971 0.30287-3.4243l0.06562-0.51316zm-4.2139 0.05276c0.32484 0.18438 0.57956 0.43502 0.76395 0.75108 0.19316 0.31607 0.3029 0.58368 0.32923 0.80317l0.0528 0.3421c-0.24584 0.55313-0.65842 0.97926-1.2379 1.2778-0.57948 0.29851-1.1858 0.46991-1.8179 0.51379-0.0263 0.11411-0.0528 0.25439-0.07918 0.4212h7.54e-4c0.09656 0.0087 0.24563 0.01364 0.44757 0.01364s0.50884-0.04878 0.92149-0.14533c0.41266-0.10539 0.75543-0.21919 1.0276-0.3421l0.39484-0.19742c0.01757 0.08785 0.02639 0.17113 0.02639 0.25015 0 0.34241-0.14903 0.68455-0.44757 1.0269-0.3863 0.43022-1.0319 0.73777-1.9362 0.92214-0.13171-0.01756-0.30244-0.04865-0.51315-0.09258-0.20195-0.04394-0.53118-0.17942-0.9877-0.40768-0.44776-0.21949-0.78581-0.48776-1.0141-0.80383 0.04395-0.5619 0.16244-1.1371 0.35561-1.7253 0.20194-0.59702 0.39029-1.0489 0.56588-1.3562l0.26366-0.46107c0.49166-0.02639 0.97878-0.1049 1.4617-0.23665 0.4829-0.1317 0.83855-0.25497 1.0668-0.3691zm17.279 0c0.32484 0.18438 0.57892 0.43502 0.7633 0.75108 0.19316 0.31607 0.30289 0.58368 0.32924 0.80317l0.0528 0.3421c-0.24584 0.55313-0.6584 0.97926-1.2379 1.2778-0.57947 0.29851-1.1851 0.46991-1.8172 0.51379-0.02639 0.11411-0.0528 0.25439-0.07918 0.4212 0.09657 0.0087 0.24563 0.01364 0.44756 0.01364 0.20194 0 0.50949-0.04878 0.92214-0.14533 0.41265-0.10539 0.75478-0.21919 1.0269-0.3421l0.39547-0.19742c0.01756 0.08785 0.02638 0.17113 0.02638 0.25015 0 0.34241-0.14905 0.68455-0.44757 1.0269-0.38631 0.43022-1.0319 0.73777-1.9362 0.92214-0.13171-0.01756-0.30309-0.04865-0.5138-0.09258-0.20193-0.04394-0.53118-0.17942-0.9877-0.40768-0.44776-0.21949-0.78581-0.48776-1.0141-0.80383 0.04395-0.5619 0.16243-1.1371 0.35559-1.7253 0.20195-0.59702 0.39094-1.0489 0.56654-1.3562l0.26365-0.46107c0.49166-0.02639 0.97878-0.1049 1.4617-0.23665 0.4829-0.1317 0.83857-0.25497 1.0668-0.3691zm-29.447 1.0405c-0.66727 0.36874-1.1679 0.84768-1.5015 1.4359-0.27216 0.48289-0.40834 0.89954-0.40834 1.2507 0 0.07901 0.0085 0.15826 0.02639 0.23728h0.02638c0.36876 0 0.75964-0.21542 1.1723-0.64562 0.10539-0.71116 0.33365-1.4706 0.68484-2.2783zm23.381 0.3376c-0.6245 0.13525-1.1057 0.41616-1.4404 0.84754-0.39509 0.50045-0.5929 1.0011-0.5929 1.5015v0.15819c0.04395-0.01756 0.17125-0.10976 0.38198-0.27651 0.21949-0.16681 0.40442-0.32467 0.55368-0.47393 0.37753-0.36874 0.70676-0.79485 0.9877-1.2778zm-12.213 0.25529c-0.1054 0-0.2063 0.0087-0.30288 0.02639-0.06142 0.21949-0.21996 0.6978-0.47457 1.4353 0.41266-0.06148 0.7419-0.28096 0.9877-0.65849 0.11411-0.1756 0.17105-0.32057 0.17105-0.4347 0-0.11411-0.03931-0.20156-0.11834-0.26301-0.07026-0.07031-0.15769-0.10553-0.26302-0.10553zm17.278 0c-0.10539 0-0.2063 0.0087-0.30288 0.02639-0.06143 0.21949-0.21933 0.6978-0.47393 1.4353 0.41265-0.06148 0.7419-0.28096 0.9877-0.65849 0.11411-0.1756 0.17106-0.32057 0.17106-0.4347 0-0.11411-0.03931-0.20156-0.11834-0.26301-0.07026-0.07031-0.1583-0.10553-0.26364-0.10553z" fill="#ffffff"/>
	<path d="m67.376 4.0302 0.65849 0.14468-0.06562 1.7909-0.03978 2.16 1.4623-0.89577 1.3427-0.091969 1.2122 0.82953 0.19742 1.054-0.02639 2.7786 0.10539 1.5408 0.93501 0.25015-0.06617 0.46107-1.5537-0.06558-1.607 0.06558 0.02639-0.46107 0.86941-0.26302 0.092-1.3832-0.0528-2.8705-0.3556-0.86941-1.1189-0.19741-1.4751 0.75044-0.02638 1.7645 0.02638 1.2778 0.0392 1.5278 0.96131 0.26301-0.06562 0.46107-1.5542-0.06558-1.6064 0.06558 0.02639-0.46107 0.8694-0.26301 0.11834-1.3832-0.0528-5.7681-0.092-1.3697-0.93499 0.039191-0.06617-0.46042zm7.9153 0 0.65848 0.14468-0.09255 1.7381-0.07919 4.6093 0.03988 1.2778 0.10553 1.5279 0.9614 0.26299-0.06617 0.46107-1.6064-0.06558-1.607 0.06558 0.02639-0.46107 0.8694-0.26299 0.06562-1.3832 0.0528-2.8841-0.07918-2.9368-0.06562-1.317-0.935 0.039191-0.06562-0.46042zm-41.169 0.46042h1.4751l2.0153 0.51381-0.2373 0.672-0.18455 1.5934-0.50029 0.039191-0.30289-1.8436-0.97489-0.25016h-1.58l-1.9754 1.6854-0.4347 2.16 0.18455 2.0018 0.76394 1.409 1.3697 1.0804 2.1465-0.18455 1.2244-0.73758 0.30288 0.4347-1.317 0.89577-2.5022 0.28938-2.4886-1.1852-0.93566-1.6989-0.263-1.6989v-1.3434l0.71122-1.7253 1.6989-1.6064zm46.911 2.6339 0.9215 0.29002 0.7112 0.64562 0.40834 1.1716 0.01364 1.0932-0.18455 0.1447-1.7517 0.11897-2.2784-0.14533-0.01284 0.11897 0.35561 1.8565 1.0398 1.0276 1.2122 0.13182 1.2379-0.65848 0.23665 0.3421-1.0405 0.82952-1.2379 0.15819-1.2906-0.30288-1.1189-0.93499-0.67198-1.9754 0.22377-1.7645 0.68483-1.2379 1.3832-0.76395zm-24.429 0.013636 1.2115 0.82955 0.19742 1.054-0.02639 2.7786 0.10553 1.5408 0.93499 0.25015-0.06562 0.46107-1.5542-0.06558-1.607 0.06558 0.02638-0.46107 0.8694-0.263 0.092-1.3832-0.05211-2.8705-0.3556-0.86941-1.1196-0.19741-1.4353 0.73757-0.02638 0.46043-0.07919 1.317 0.02639 1.2778 0.06562 1.5279 0.9614 0.263-0.06562 0.46107-1.5542-0.06558-1.6064 0.06558 0.02639-0.46107 0.86877-0.263 0.09258-1.3832-0.11896-3.8982-0.93501 0.039816-0.06562-0.46107 1.8172-0.3556 0.6585 0.14468-0.03921 0.672 1.409-0.85655zm6.545 0 2.0153 0.26366-0.39546 2.0674-0.4347 0.06558-0.23665-1.6462-1.6597-0.13119-1.1852 1.2643-0.34209 1.3697 0.17104 1.3954 0.8424 1.5278 1.6205 0.26366 1.2379-0.65849 0.23664 0.3421-1.0405 0.82953-1.2379 0.15819-1.8828-0.54016-1.1723-1.9092-0.01364-2.1992 0.89576-1.5671 1.3826-0.72472zm23.389 0 1.9362 0.39483-0.27651 1.9362-0.55301-0.18455-0.25016-1.3697-0.90927-0.17105-0.9877 0.22379-0.25014 0.72472 0.31637 0.7768 2.5285 1.4488 0.61927 0.7768 0.05212 1.2379-0.89513 1.054-1.5806 0.26301-1.0932-0.05276-1.2244-0.47393 0.32924-1.8963 0.56588 0.18455 0.10539 1.4617 1.0932 0.17105 1.2251-0.17105 0.28936-0.89578-0.35559-0.68484-2.4494-1.4881-0.52666-0.82955-0.02639-1.3961 0.93499-0.79031zm5.6897 0 1.9356 0.39483-0.27649 1.9362-0.55304-0.18455-0.25014-1.3697-0.90863-0.17105-0.9877 0.22379-0.25015 0.72472 0.31574 0.7768 2.5284 1.4488 0.61926 0.7768 0.0528 1.2379-0.89578 1.054-1.5806 0.26301-1.0925-0.05276-1.225-0.47393 0.32926-1.8963 0.56652 0.18455 0.10552 1.4617 1.0925 0.17105 1.2251-0.17105 0.29002-0.89578-0.35561-0.68484-2.45-1.4881-0.52666-0.82955-0.02637-1.3961 0.935-0.79031zm-50.072 0.012834 0.9877 0.25079-0.22379 1.9619-0.46107-0.091954-0.32924-1.3568-0.85589 0.27652-0.93501 1.0932-0.06617 1.2379 0.03978 1.2778 0.0528 1.5279 1.317 0.263-0.06617 0.46107-1.9092-0.06558-1.607 0.06558 0.02638-0.46107 0.86941-0.263 0.06561-1.3832-0.02639-2.5285-0.06562-1.3697-0.935 0.039816-0.06617-0.46107 1.8179-0.3556 0.65849 0.14468-0.0528 1.0668h0.0528l0.81604-0.93499zm3.0822 0.11897 0.65848 0.14468-0.07908 2.0282v2.8712l0.3556 0.86877 1.106 0.14533 1.4353-0.85655v-1.3961l-0.01299-1.6462-0.06617-1.3691-0.935 0.039191-0.06562-0.46109 1.8172-0.3556 0.65848 0.14533-0.092 1.7909-0.01364 1.0533 0.02639 0.80317v2.3709l0.92214 0.26302-0.06617 0.46107h-1.8036l-0.30287-1.1061-1.4886 1.0932-1.3434 0.09196-1.2115-0.82953-0.19742-1.054 0.01364-2.8178-0.13183-1.5015-0.93501 0.039816-0.06617-0.46107zm35.295 0.44757-1.0012 0.5929-0.51381 1.0006-0.07853 0.5929 2.0011 0.026389 0.90929-0.19742-0.07918-1.2251-0.39548-0.67199z" fill="#ffffff"/>
</svg>
